<mxfile host="app.diagrams.net" modified="2022-03-23T12:36:42.435Z" agent="5.0 (Macintosh; Intel Mac OS X 10_15_7) AppleWebKit/605.1.15 (KHTML, like Gecko) Version/15.4 Safari/605.1.15" etag="dANW4qhbLzFBXACJOgMt" version="17.1.3" type="github">
  <diagram id="GkwxvoKI0v0egCr2lqlU" name="Page-1">
    <mxGraphModel dx="2742" dy="1290" grid="1" gridSize="10" guides="1" tooltips="1" connect="1" arrows="1" fold="1" page="1" pageScale="1" pageWidth="850" pageHeight="1100" math="0" shadow="0">
      <root>
        <mxCell id="0" />
        <mxCell id="1" parent="0" />
        <mxCell id="uQF2bjW9X4T5isOUZy0i-151" value="" style="ellipse;whiteSpace=wrap;html=1;aspect=fixed;fontColor=#FF0000;fillColor=none;strokeColor=#000000;" parent="1" vertex="1">
          <mxGeometry x="1270" y="1095" width="30" height="30" as="geometry" />
        </mxCell>
        <mxCell id="uQF2bjW9X4T5isOUZy0i-152" style="rounded=0;orthogonalLoop=1;jettySize=auto;html=1;exitX=1;exitY=0.5;exitDx=0;exitDy=0;entryX=0;entryY=0.5;entryDx=0;entryDy=0;endArrow=none;endFill=0;fontColor=#FF0000;strokeColor=#000000;" parent="1" source="uQF2bjW9X4T5isOUZy0i-151" target="uQF2bjW9X4T5isOUZy0i-156" edge="1">
          <mxGeometry relative="1" as="geometry">
            <mxPoint x="1319.9999999999995" y="1074.9999999999998" as="sourcePoint" />
          </mxGeometry>
        </mxCell>
        <mxCell id="uQF2bjW9X4T5isOUZy0i-155" style="edgeStyle=none;rounded=0;orthogonalLoop=1;jettySize=auto;html=1;exitX=1;exitY=0.5;exitDx=0;exitDy=0;entryX=0;entryY=0.5;entryDx=0;entryDy=0;endArrow=none;endFill=0;fontColor=#FF0000;strokeColor=#000000;" parent="1" source="uQF2bjW9X4T5isOUZy0i-156" target="uQF2bjW9X4T5isOUZy0i-164" edge="1">
          <mxGeometry relative="1" as="geometry" />
        </mxCell>
        <mxCell id="uQF2bjW9X4T5isOUZy0i-156" value="" style="ellipse;whiteSpace=wrap;html=1;aspect=fixed;fontColor=#FF0000;fillColor=none;strokeColor=#000000;" parent="1" vertex="1">
          <mxGeometry x="1370" y="1095" width="30" height="30" as="geometry" />
        </mxCell>
        <mxCell id="uQF2bjW9X4T5isOUZy0i-162" style="edgeStyle=none;rounded=0;orthogonalLoop=1;jettySize=auto;html=1;exitX=1;exitY=0.5;exitDx=0;exitDy=0;entryX=0;entryY=0.5;entryDx=0;entryDy=0;fontSize=18;endArrow=none;endFill=0;" parent="1" source="uQF2bjW9X4T5isOUZy0i-164" target="uQF2bjW9X4T5isOUZy0i-168" edge="1">
          <mxGeometry relative="1" as="geometry" />
        </mxCell>
        <mxCell id="uQF2bjW9X4T5isOUZy0i-163" style="edgeStyle=none;rounded=0;orthogonalLoop=1;jettySize=auto;html=1;exitX=1;exitY=0.5;exitDx=0;exitDy=0;entryX=0;entryY=0.5;entryDx=0;entryDy=0;fontSize=18;endArrow=none;endFill=0;" parent="1" source="uQF2bjW9X4T5isOUZy0i-164" target="uQF2bjW9X4T5isOUZy0i-170" edge="1">
          <mxGeometry relative="1" as="geometry" />
        </mxCell>
        <mxCell id="uQF2bjW9X4T5isOUZy0i-164" value="" style="ellipse;whiteSpace=wrap;html=1;aspect=fixed;fontColor=#FF0000;fillColor=none;strokeColor=#000000;" parent="1" vertex="1">
          <mxGeometry x="1480" y="1095" width="30" height="30" as="geometry" />
        </mxCell>
        <mxCell id="uQF2bjW9X4T5isOUZy0i-167" style="edgeStyle=none;rounded=0;orthogonalLoop=1;jettySize=auto;html=1;exitX=1;exitY=0.5;exitDx=0;exitDy=0;entryX=0;entryY=0.5;entryDx=0;entryDy=0;fontSize=18;endArrow=none;endFill=0;" parent="1" source="uQF2bjW9X4T5isOUZy0i-168" target="uQF2bjW9X4T5isOUZy0i-171" edge="1">
          <mxGeometry relative="1" as="geometry" />
        </mxCell>
        <mxCell id="uQF2bjW9X4T5isOUZy0i-168" value="" style="ellipse;whiteSpace=wrap;html=1;aspect=fixed;" parent="1" vertex="1">
          <mxGeometry x="1599" y="1060" width="30" height="30" as="geometry" />
        </mxCell>
        <mxCell id="uQF2bjW9X4T5isOUZy0i-169" style="edgeStyle=none;rounded=0;orthogonalLoop=1;jettySize=auto;html=1;exitX=1;exitY=0.5;exitDx=0;exitDy=0;fontSize=18;endArrow=none;endFill=0;entryX=0;entryY=0.5;entryDx=0;entryDy=0;" parent="1" source="uQF2bjW9X4T5isOUZy0i-170" target="uQF2bjW9X4T5isOUZy0i-171" edge="1">
          <mxGeometry relative="1" as="geometry">
            <mxPoint x="1909" y="1140" as="targetPoint" />
          </mxGeometry>
        </mxCell>
        <mxCell id="uQF2bjW9X4T5isOUZy0i-170" value="" style="ellipse;whiteSpace=wrap;html=1;aspect=fixed;" parent="1" vertex="1">
          <mxGeometry x="1599" y="1140" width="30" height="30" as="geometry" />
        </mxCell>
        <mxCell id="uQF2bjW9X4T5isOUZy0i-171" value="" style="ellipse;whiteSpace=wrap;html=1;aspect=fixed;" parent="1" vertex="1">
          <mxGeometry x="1720" y="1095" width="30" height="30" as="geometry" />
        </mxCell>
        <mxCell id="uQF2bjW9X4T5isOUZy0i-172" value="&lt;font style=&quot;font-size: 27px&quot; face=&quot;Georgia&quot;&gt;on&lt;/font&gt;" style="text;html=1;align=center;verticalAlign=middle;resizable=0;points=[];autosize=1;strokeColor=none;fillColor=none;fontColor=#000000;" parent="1" vertex="1">
          <mxGeometry x="1310" y="1085" width="50" height="20" as="geometry" />
        </mxCell>
        <mxCell id="uQF2bjW9X4T5isOUZy0i-175" value="&lt;font style=&quot;font-size: 27px&quot; face=&quot;Georgia&quot;&gt;the&lt;/font&gt;" style="text;html=1;align=center;verticalAlign=middle;resizable=0;points=[];autosize=1;strokeColor=none;fillColor=none;fontColor=#000000;" parent="1" vertex="1">
          <mxGeometry x="1420" y="1085" width="50" height="20" as="geometry" />
        </mxCell>
        <mxCell id="uQF2bjW9X4T5isOUZy0i-179" value="&lt;font style=&quot;font-size: 27px&quot; face=&quot;Georgia&quot;&gt;desk&lt;/font&gt;" style="text;html=1;align=center;verticalAlign=middle;resizable=0;points=[];autosize=1;strokeColor=none;fillColor=none;" parent="1" vertex="1">
          <mxGeometry x="1505" y="1065" width="70" height="20" as="geometry" />
        </mxCell>
        <mxCell id="uQF2bjW9X4T5isOUZy0i-180" value="&lt;font style=&quot;font-size: 27px&quot; face=&quot;Georgia&quot;&gt;task&lt;/font&gt;" style="text;html=1;align=center;verticalAlign=middle;resizable=0;points=[];autosize=1;strokeColor=none;fillColor=none;" parent="1" vertex="1">
          <mxGeometry x="1515" y="1140" width="60" height="20" as="geometry" />
        </mxCell>
        <mxCell id="uQF2bjW9X4T5isOUZy0i-182" value="&lt;font style=&quot;font-size: 27px&quot; face=&quot;Georgia&quot;&gt;&amp;lt;/s&amp;gt;&lt;/font&gt;" style="text;html=1;align=center;verticalAlign=middle;resizable=0;points=[];autosize=1;strokeColor=none;fillColor=none;" parent="1" vertex="1">
          <mxGeometry x="1645" y="1062" width="70" height="20" as="geometry" />
        </mxCell>
        <mxCell id="uQF2bjW9X4T5isOUZy0i-183" value="&lt;font style=&quot;font-size: 27px&quot; face=&quot;Georgia&quot;&gt;&amp;lt;/s&amp;gt;&lt;/font&gt;" style="text;html=1;align=center;verticalAlign=middle;resizable=0;points=[];autosize=1;strokeColor=none;fillColor=none;" parent="1" vertex="1">
          <mxGeometry x="1645" y="1142" width="70" height="20" as="geometry" />
        </mxCell>
        <mxCell id="uQF2bjW9X4T5isOUZy0i-189" style="edgeStyle=none;rounded=0;orthogonalLoop=1;jettySize=auto;html=1;exitX=1;exitY=0.5;exitDx=0;exitDy=0;entryX=0;entryY=0.5;entryDx=0;entryDy=0;fontFamily=Georgia;fontSize=27;fontColor=#000000;endArrow=none;endFill=0;strokeColor=#000000;" parent="1" source="uQF2bjW9X4T5isOUZy0i-188" target="uQF2bjW9X4T5isOUZy0i-151" edge="1">
          <mxGeometry relative="1" as="geometry" />
        </mxCell>
        <mxCell id="uQF2bjW9X4T5isOUZy0i-188" value="" style="ellipse;whiteSpace=wrap;html=1;aspect=fixed;" parent="1" vertex="1">
          <mxGeometry x="1171" y="1095" width="30" height="30" as="geometry" />
        </mxCell>
        <mxCell id="uQF2bjW9X4T5isOUZy0i-190" value="&lt;font style=&quot;font-size: 27px&quot; face=&quot;Georgia&quot;&gt;&amp;lt;s&amp;gt;&lt;/font&gt;" style="text;html=1;align=center;verticalAlign=middle;resizable=0;points=[];autosize=1;strokeColor=none;fillColor=none;" parent="1" vertex="1">
          <mxGeometry x="1210" y="1085" width="60" height="20" as="geometry" />
        </mxCell>
        <mxCell id="uQF2bjW9X4T5isOUZy0i-229" value="" style="rounded=1;whiteSpace=wrap;html=1;fontFamily=Georgia;fontSize=27;fontColor=#000000;strokeColor=#000000;fillColor=none;dashed=1;" parent="1" vertex="1">
          <mxGeometry x="-50" y="830" width="800" height="235" as="geometry" />
        </mxCell>
        <mxCell id="uQF2bjW9X4T5isOUZy0i-231" value="" style="shape=flexArrow;endArrow=classic;html=1;rounded=0;fontFamily=Georgia;fontSize=27;fontColor=#000000;strokeColor=#000000;" parent="1" edge="1">
          <mxGeometry width="50" height="50" relative="1" as="geometry">
            <mxPoint x="780" y="1267.5" as="sourcePoint" />
            <mxPoint x="849" y="1222.5" as="targetPoint" />
          </mxGeometry>
        </mxCell>
        <mxCell id="uQF2bjW9X4T5isOUZy0i-232" value="" style="shape=flexArrow;endArrow=classic;html=1;rounded=0;fontFamily=Georgia;fontSize=27;fontColor=#000000;strokeColor=#000000;" parent="1" edge="1">
          <mxGeometry width="50" height="50" relative="1" as="geometry">
            <mxPoint x="775" y="919.9999999999995" as="sourcePoint" />
            <mxPoint x="844" y="964.9999999999995" as="targetPoint" />
          </mxGeometry>
        </mxCell>
        <mxCell id="uQF2bjW9X4T5isOUZy0i-233" value="GNN" style="rounded=1;whiteSpace=wrap;html=1;fontFamily=Georgia;fontSize=27;fontColor=#000000;strokeColor=#000000;fillColor=none;" parent="1" vertex="1">
          <mxGeometry x="867.5" y="1180" width="182.5" height="60" as="geometry" />
        </mxCell>
        <mxCell id="uQF2bjW9X4T5isOUZy0i-234" value="LatticeRNN" style="rounded=1;whiteSpace=wrap;html=1;fontFamily=Georgia;fontSize=27;fontColor=#000000;strokeColor=#000000;fillColor=none;" parent="1" vertex="1">
          <mxGeometry x="870" y="960" width="180" height="60" as="geometry" />
        </mxCell>
        <mxCell id="uQF2bjW9X4T5isOUZy0i-237" value="(a)" style="text;html=1;align=center;verticalAlign=middle;resizable=0;points=[];autosize=1;strokeColor=none;fillColor=none;fontSize=27;fontFamily=Georgia;fontColor=#000000;" parent="1" vertex="1">
          <mxGeometry x="933.75" y="1025" width="50" height="40" as="geometry" />
        </mxCell>
        <mxCell id="uQF2bjW9X4T5isOUZy0i-238" value="(b)" style="text;html=1;align=center;verticalAlign=middle;resizable=0;points=[];autosize=1;strokeColor=none;fillColor=none;fontSize=27;fontFamily=Georgia;fontColor=#000000;" parent="1" vertex="1">
          <mxGeometry x="933.75" y="1260" width="50" height="40" as="geometry" />
        </mxCell>
        <mxCell id="uQF2bjW9X4T5isOUZy0i-239" value="" style="endArrow=open;html=1;rounded=0;fontFamily=Georgia;fontSize=27;fontColor=#000000;strokeColor=#000000;endFill=0;" parent="1" edge="1">
          <mxGeometry width="50" height="50" relative="1" as="geometry">
            <mxPoint x="1060" y="1190" as="sourcePoint" />
            <mxPoint x="1160" y="1120" as="targetPoint" />
          </mxGeometry>
        </mxCell>
        <mxCell id="uQF2bjW9X4T5isOUZy0i-240" value="" style="endArrow=open;html=1;rounded=0;fontFamily=Georgia;fontSize=27;fontColor=#000000;strokeColor=#000000;endFill=0;" parent="1" edge="1">
          <mxGeometry width="50" height="50" relative="1" as="geometry">
            <mxPoint x="1060" y="1020" as="sourcePoint" />
            <mxPoint x="1160" y="1100" as="targetPoint" />
          </mxGeometry>
        </mxCell>
        <mxCell id="LwhTmWAjGXsf5G4LRFbt-61" value="&lt;font color=&quot;#000000&quot; style=&quot;font-size: 24px&quot;&gt;Initialize&lt;/font&gt;" style="text;html=1;align=center;verticalAlign=middle;resizable=0;points=[];autosize=1;strokeColor=none;fillColor=none;fontColor=#FF0000;" parent="1" vertex="1">
          <mxGeometry x="1080" y="1020" width="100" height="20" as="geometry" />
        </mxCell>
        <mxCell id="LwhTmWAjGXsf5G4LRFbt-62" value="&lt;font color=&quot;#000000&quot; style=&quot;font-size: 24px&quot;&gt;Initialize&lt;/font&gt;" style="text;html=1;align=center;verticalAlign=middle;resizable=0;points=[];autosize=1;strokeColor=none;fillColor=none;fontColor=#FF0000;" parent="1" vertex="1">
          <mxGeometry x="1090" y="1170" width="100" height="20" as="geometry" />
        </mxCell>
        <mxCell id="BrQD2luiDW-sb1GJgAt4-1" style="rounded=0;orthogonalLoop=1;jettySize=auto;html=1;exitX=1;exitY=0.5;exitDx=0;exitDy=0;entryX=0;entryY=0.5;entryDx=0;entryDy=0;endArrow=none;endFill=0;fontColor=#000000;strokeColor=#000000;fillColor=#e51400;" parent="1" source="BrQD2luiDW-sb1GJgAt4-3" target="BrQD2luiDW-sb1GJgAt4-6" edge="1">
          <mxGeometry relative="1" as="geometry" />
        </mxCell>
        <mxCell id="BrQD2luiDW-sb1GJgAt4-2" style="edgeStyle=none;rounded=0;orthogonalLoop=1;jettySize=auto;html=1;exitX=1;exitY=0.5;exitDx=0;exitDy=0;entryX=0;entryY=0.5;entryDx=0;entryDy=0;endArrow=none;endFill=0;fontColor=#000000;strokeColor=#000000;fillColor=#e51400;" parent="1" source="BrQD2luiDW-sb1GJgAt4-23" target="BrQD2luiDW-sb1GJgAt4-9" edge="1">
          <mxGeometry relative="1" as="geometry" />
        </mxCell>
        <mxCell id="BrQD2luiDW-sb1GJgAt4-3" value="" style="ellipse;whiteSpace=wrap;html=1;aspect=fixed;fillColor=none;" parent="1" vertex="1">
          <mxGeometry x="240" y="892.5" width="30" height="30" as="geometry" />
        </mxCell>
        <mxCell id="BrQD2luiDW-sb1GJgAt4-4" style="edgeStyle=none;rounded=0;orthogonalLoop=1;jettySize=auto;html=1;exitX=1;exitY=0.5;exitDx=0;exitDy=0;entryX=0;entryY=0.5;entryDx=0;entryDy=0;endArrow=none;endFill=0;" parent="1" source="BrQD2luiDW-sb1GJgAt4-6" target="BrQD2luiDW-sb1GJgAt4-11" edge="1">
          <mxGeometry relative="1" as="geometry" />
        </mxCell>
        <mxCell id="BrQD2luiDW-sb1GJgAt4-5" style="edgeStyle=none;rounded=0;orthogonalLoop=1;jettySize=auto;html=1;exitX=1;exitY=0.5;exitDx=0;exitDy=0;entryX=0;entryY=0.5;entryDx=0;entryDy=0;endArrow=none;endFill=0;strokeColor=#000000;fillColor=#e51400;" parent="1" source="BrQD2luiDW-sb1GJgAt4-6" target="BrQD2luiDW-sb1GJgAt4-13" edge="1">
          <mxGeometry relative="1" as="geometry" />
        </mxCell>
        <mxCell id="BrQD2luiDW-sb1GJgAt4-6" value="" style="ellipse;whiteSpace=wrap;html=1;aspect=fixed;fillColor=none;fontColor=#000000;" parent="1" vertex="1">
          <mxGeometry x="335" y="892.5" width="30" height="30" as="geometry" />
        </mxCell>
        <mxCell id="BrQD2luiDW-sb1GJgAt4-7" style="edgeStyle=none;rounded=0;orthogonalLoop=1;jettySize=auto;html=1;exitX=1;exitY=0.5;exitDx=0;exitDy=0;endArrow=none;endFill=0;entryX=0;entryY=0.5;entryDx=0;entryDy=0;strokeColor=#000000;fillColor=#e51400;" parent="1" source="BrQD2luiDW-sb1GJgAt4-9" target="BrQD2luiDW-sb1GJgAt4-13" edge="1">
          <mxGeometry relative="1" as="geometry">
            <mxPoint x="535" y="972.5" as="targetPoint" />
          </mxGeometry>
        </mxCell>
        <mxCell id="BrQD2luiDW-sb1GJgAt4-8" style="edgeStyle=none;rounded=0;orthogonalLoop=1;jettySize=auto;html=1;exitX=1;exitY=0.5;exitDx=0;exitDy=0;entryX=0;entryY=0.5;entryDx=0;entryDy=0;endArrow=none;endFill=0;" parent="1" source="BrQD2luiDW-sb1GJgAt4-9" target="BrQD2luiDW-sb1GJgAt4-15" edge="1">
          <mxGeometry relative="1" as="geometry" />
        </mxCell>
        <mxCell id="BrQD2luiDW-sb1GJgAt4-9" value="" style="ellipse;whiteSpace=wrap;html=1;aspect=fixed;fillColor=none;fontColor=#000000;" parent="1" vertex="1">
          <mxGeometry x="335" y="972.5" width="30" height="30" as="geometry" />
        </mxCell>
        <mxCell id="BrQD2luiDW-sb1GJgAt4-10" style="edgeStyle=none;rounded=0;orthogonalLoop=1;jettySize=auto;html=1;exitX=1;exitY=0.5;exitDx=0;exitDy=0;entryX=0;entryY=0.5;entryDx=0;entryDy=0;fontSize=18;endArrow=none;endFill=0;" parent="1" source="BrQD2luiDW-sb1GJgAt4-11" target="BrQD2luiDW-sb1GJgAt4-20" edge="1">
          <mxGeometry relative="1" as="geometry" />
        </mxCell>
        <mxCell id="BrQD2luiDW-sb1GJgAt4-11" value="" style="ellipse;whiteSpace=wrap;html=1;aspect=fixed;" parent="1" vertex="1">
          <mxGeometry x="465" y="852.5" width="30" height="30" as="geometry" />
        </mxCell>
        <mxCell id="BrQD2luiDW-sb1GJgAt4-12" style="edgeStyle=none;rounded=0;orthogonalLoop=1;jettySize=auto;html=1;exitX=1;exitY=0.5;exitDx=0;exitDy=0;entryX=0;entryY=0.5;entryDx=0;entryDy=0;fontSize=18;endArrow=none;endFill=0;" parent="1" source="BrQD2luiDW-sb1GJgAt4-13" target="BrQD2luiDW-sb1GJgAt4-20" edge="1">
          <mxGeometry relative="1" as="geometry" />
        </mxCell>
        <mxCell id="BrQD2luiDW-sb1GJgAt4-13" value="" style="ellipse;whiteSpace=wrap;html=1;aspect=fixed;fillColor=none;" parent="1" vertex="1">
          <mxGeometry x="465" y="932.5" width="30" height="30" as="geometry" />
        </mxCell>
        <mxCell id="BrQD2luiDW-sb1GJgAt4-14" style="edgeStyle=none;rounded=0;orthogonalLoop=1;jettySize=auto;html=1;exitX=1;exitY=0.5;exitDx=0;exitDy=0;entryX=0;entryY=0.5;entryDx=0;entryDy=0;fontSize=18;endArrow=none;endFill=0;" parent="1" source="BrQD2luiDW-sb1GJgAt4-15" target="BrQD2luiDW-sb1GJgAt4-20" edge="1">
          <mxGeometry relative="1" as="geometry">
            <mxPoint x="585" y="987.5" as="targetPoint" />
          </mxGeometry>
        </mxCell>
        <mxCell id="BrQD2luiDW-sb1GJgAt4-15" value="" style="ellipse;whiteSpace=wrap;html=1;aspect=fixed;" parent="1" vertex="1">
          <mxGeometry x="465" y="1012.5" width="30" height="30" as="geometry" />
        </mxCell>
        <mxCell id="BrQD2luiDW-sb1GJgAt4-16" style="edgeStyle=none;rounded=0;orthogonalLoop=1;jettySize=auto;html=1;exitX=1;exitY=0.5;exitDx=0;exitDy=0;entryX=0;entryY=0.5;entryDx=0;entryDy=0;fontSize=18;endArrow=none;endFill=0;" parent="1" source="BrQD2luiDW-sb1GJgAt4-18" target="BrQD2luiDW-sb1GJgAt4-3" edge="1">
          <mxGeometry relative="1" as="geometry" />
        </mxCell>
        <mxCell id="BrQD2luiDW-sb1GJgAt4-17" style="rounded=0;orthogonalLoop=1;jettySize=auto;html=1;exitX=1;exitY=0.5;exitDx=0;exitDy=0;entryX=0;entryY=0.5;entryDx=0;entryDy=0;fontFamily=Georgia;fontSize=27;endArrow=none;endFill=0;" parent="1" source="BrQD2luiDW-sb1GJgAt4-36" target="BrQD2luiDW-sb1GJgAt4-23" edge="1">
          <mxGeometry relative="1" as="geometry" />
        </mxCell>
        <mxCell id="BrQD2luiDW-sb1GJgAt4-18" value="" style="ellipse;whiteSpace=wrap;html=1;aspect=fixed;" parent="1" vertex="1">
          <mxGeometry x="120" y="892.5" width="30" height="30" as="geometry" />
        </mxCell>
        <mxCell id="BrQD2luiDW-sb1GJgAt4-19" style="edgeStyle=none;rounded=0;orthogonalLoop=1;jettySize=auto;html=1;exitX=1;exitY=0.5;exitDx=0;exitDy=0;entryX=0;entryY=0.5;entryDx=0;entryDy=0;fontSize=18;endArrow=none;endFill=0;" parent="1" source="BrQD2luiDW-sb1GJgAt4-20" target="BrQD2luiDW-sb1GJgAt4-21" edge="1">
          <mxGeometry relative="1" as="geometry" />
        </mxCell>
        <mxCell id="BrQD2luiDW-sb1GJgAt4-20" value="" style="ellipse;whiteSpace=wrap;html=1;aspect=fixed;" parent="1" vertex="1">
          <mxGeometry x="595" y="932.5" width="30" height="30" as="geometry" />
        </mxCell>
        <mxCell id="BrQD2luiDW-sb1GJgAt4-21" value="" style="ellipse;whiteSpace=wrap;html=1;aspect=fixed;" parent="1" vertex="1">
          <mxGeometry x="695" y="932.5" width="30" height="30" as="geometry" />
        </mxCell>
        <mxCell id="BrQD2luiDW-sb1GJgAt4-22" value="&lt;font style=&quot;font-size: 27px&quot; face=&quot;Georgia&quot;&gt;&amp;lt;s&amp;gt;&lt;/font&gt;" style="text;html=1;align=center;verticalAlign=middle;resizable=0;points=[];autosize=1;strokeColor=none;fillColor=none;" parent="1" vertex="1">
          <mxGeometry x="-40" y="937.5" width="60" height="20" as="geometry" />
        </mxCell>
        <mxCell id="BrQD2luiDW-sb1GJgAt4-23" value="" style="ellipse;whiteSpace=wrap;html=1;aspect=fixed;fillColor=none;" parent="1" vertex="1">
          <mxGeometry x="240" y="972.5" width="30" height="30" as="geometry" />
        </mxCell>
        <mxCell id="BrQD2luiDW-sb1GJgAt4-24" value="&lt;font style=&quot;font-size: 27px&quot; face=&quot;Georgia&quot;&gt;where&lt;/font&gt;" style="text;html=1;align=center;verticalAlign=middle;resizable=0;points=[];autosize=1;strokeColor=none;fillColor=none;" parent="1" vertex="1">
          <mxGeometry x="150" y="882.5" width="90" height="20" as="geometry" />
        </mxCell>
        <mxCell id="BrQD2luiDW-sb1GJgAt4-25" value="&lt;font style=&quot;font-size: 27px&quot; face=&quot;Georgia&quot;&gt;where&lt;/font&gt;" style="text;html=1;align=center;verticalAlign=middle;resizable=0;points=[];autosize=1;strokeColor=none;fillColor=none;" parent="1" vertex="1">
          <mxGeometry x="150" y="992.5" width="90" height="20" as="geometry" />
        </mxCell>
        <mxCell id="BrQD2luiDW-sb1GJgAt4-26" value="&lt;font style=&quot;font-size: 27px&quot; face=&quot;Georgia&quot;&gt;is&lt;/font&gt;" style="text;html=1;align=center;verticalAlign=middle;resizable=0;points=[];autosize=1;strokeColor=none;fillColor=none;fontColor=#000000;" parent="1" vertex="1">
          <mxGeometry x="284" y="882.5" width="40" height="20" as="geometry" />
        </mxCell>
        <mxCell id="BrQD2luiDW-sb1GJgAt4-27" value="&lt;font style=&quot;font-size: 27px&quot; face=&quot;Georgia&quot;&gt;is&lt;/font&gt;" style="text;html=1;align=center;verticalAlign=middle;resizable=0;points=[];autosize=1;strokeColor=none;fillColor=none;fontColor=#000000;" parent="1" vertex="1">
          <mxGeometry x="284" y="992.5" width="40" height="20" as="geometry" />
        </mxCell>
        <mxCell id="BrQD2luiDW-sb1GJgAt4-28" value="&lt;font style=&quot;font-size: 27px&quot; face=&quot;Georgia&quot;&gt;the&lt;/font&gt;" style="text;html=1;align=center;verticalAlign=middle;resizable=0;points=[];autosize=1;strokeColor=none;fillColor=none;fontColor=#000000;" parent="1" vertex="1">
          <mxGeometry x="395" y="972.5" width="50" height="20" as="geometry" />
        </mxCell>
        <mxCell id="BrQD2luiDW-sb1GJgAt4-29" value="&lt;font style=&quot;font-size: 27px&quot; face=&quot;Georgia&quot;&gt;the&lt;/font&gt;" style="text;html=1;align=center;verticalAlign=middle;resizable=0;points=[];autosize=1;strokeColor=none;fillColor=none;fontColor=#000000;" parent="1" vertex="1">
          <mxGeometry x="395" y="902.5" width="50" height="20" as="geometry" />
        </mxCell>
        <mxCell id="BrQD2luiDW-sb1GJgAt4-30" value="&lt;font style=&quot;font-size: 27px&quot; face=&quot;Georgia&quot;&gt;these&lt;/font&gt;" style="text;html=1;align=center;verticalAlign=middle;resizable=0;points=[];autosize=1;strokeColor=none;fillColor=none;" parent="1" vertex="1">
          <mxGeometry x="374" y="852.5" width="80" height="20" as="geometry" />
        </mxCell>
        <mxCell id="BrQD2luiDW-sb1GJgAt4-31" value="&lt;font style=&quot;font-size: 27px&quot; face=&quot;Georgia&quot;&gt;there&lt;/font&gt;" style="text;html=1;align=center;verticalAlign=middle;resizable=0;points=[];autosize=1;strokeColor=none;fillColor=none;fontColor=#000000;" parent="1" vertex="1">
          <mxGeometry x="374" y="1017.5" width="80" height="20" as="geometry" />
        </mxCell>
        <mxCell id="BrQD2luiDW-sb1GJgAt4-32" value="&lt;font style=&quot;font-size: 27px&quot; face=&quot;Georgia&quot;&gt;book&lt;/font&gt;" style="text;html=1;align=center;verticalAlign=middle;resizable=0;points=[];autosize=1;strokeColor=none;fillColor=none;" parent="1" vertex="1">
          <mxGeometry x="530" y="872.5" width="70" height="20" as="geometry" />
        </mxCell>
        <mxCell id="BrQD2luiDW-sb1GJgAt4-33" value="&lt;font style=&quot;font-size: 27px&quot; face=&quot;Georgia&quot;&gt;book&lt;/font&gt;" style="text;html=1;align=center;verticalAlign=middle;resizable=0;points=[];autosize=1;strokeColor=none;fillColor=none;" parent="1" vertex="1">
          <mxGeometry x="495" y="922.5" width="70" height="20" as="geometry" />
        </mxCell>
        <mxCell id="BrQD2luiDW-sb1GJgAt4-34" value="&lt;font style=&quot;font-size: 27px&quot; face=&quot;Georgia&quot;&gt;&amp;lt;/s&amp;gt;&lt;/font&gt;" style="text;html=1;align=center;verticalAlign=middle;resizable=0;points=[];autosize=1;strokeColor=none;fillColor=none;" parent="1" vertex="1">
          <mxGeometry x="625" y="917.5" width="70" height="20" as="geometry" />
        </mxCell>
        <mxCell id="BrQD2luiDW-sb1GJgAt4-35" value="&lt;font style=&quot;font-size: 27px&quot; face=&quot;Georgia&quot;&gt;book&lt;br&gt;&lt;/font&gt;" style="text;html=1;align=center;verticalAlign=middle;resizable=0;points=[];autosize=1;strokeColor=none;fillColor=none;" parent="1" vertex="1">
          <mxGeometry x="530" y="1002.5" width="70" height="20" as="geometry" />
        </mxCell>
        <mxCell id="BrQD2luiDW-sb1GJgAt4-36" value="" style="ellipse;whiteSpace=wrap;html=1;aspect=fixed;" parent="1" vertex="1">
          <mxGeometry x="120" y="972.5" width="30" height="30" as="geometry" />
        </mxCell>
        <mxCell id="BrQD2luiDW-sb1GJgAt4-37" style="rounded=0;orthogonalLoop=1;jettySize=auto;html=1;exitX=1;exitY=0.5;exitDx=0;exitDy=0;entryX=0;entryY=0.5;entryDx=0;entryDy=0;endArrow=none;endFill=0;" parent="1" source="BrQD2luiDW-sb1GJgAt4-39" target="BrQD2luiDW-sb1GJgAt4-18" edge="1">
          <mxGeometry relative="1" as="geometry" />
        </mxCell>
        <mxCell id="BrQD2luiDW-sb1GJgAt4-38" style="rounded=0;orthogonalLoop=1;jettySize=auto;html=1;exitX=1;exitY=0.5;exitDx=0;exitDy=0;entryX=0;entryY=0.5;entryDx=0;entryDy=0;endArrow=none;endFill=0;" parent="1" source="BrQD2luiDW-sb1GJgAt4-39" target="BrQD2luiDW-sb1GJgAt4-36" edge="1">
          <mxGeometry relative="1" as="geometry" />
        </mxCell>
        <mxCell id="BrQD2luiDW-sb1GJgAt4-39" value="" style="ellipse;whiteSpace=wrap;html=1;aspect=fixed;" parent="1" vertex="1">
          <mxGeometry x="20" y="932.5" width="30" height="30" as="geometry" />
        </mxCell>
        <mxCell id="BrQD2luiDW-sb1GJgAt4-40" value="&lt;font style=&quot;font-size: 27px&quot; face=&quot;Georgia&quot;&gt;and&lt;/font&gt;" style="text;html=1;align=center;verticalAlign=middle;resizable=0;points=[];autosize=1;strokeColor=none;fillColor=none;" parent="1" vertex="1">
          <mxGeometry x="50" y="897.5" width="60" height="20" as="geometry" />
        </mxCell>
        <mxCell id="BrQD2luiDW-sb1GJgAt4-41" value="&lt;font style=&quot;font-size: 27px&quot; face=&quot;Georgia&quot;&gt;add&lt;/font&gt;" style="text;html=1;align=center;verticalAlign=middle;resizable=0;points=[];autosize=1;strokeColor=none;fillColor=none;" parent="1" vertex="1">
          <mxGeometry x="50" y="977.5" width="60" height="20" as="geometry" />
        </mxCell>
        <mxCell id="BrQD2luiDW-sb1GJgAt4-42" value="" style="rounded=1;whiteSpace=wrap;html=1;fontFamily=Georgia;fontSize=27;fontColor=#000000;strokeColor=#000000;fillColor=none;dashed=1;" parent="1" vertex="1">
          <mxGeometry x="-50" y="1140" width="800" height="235" as="geometry" />
        </mxCell>
        <mxCell id="BrQD2luiDW-sb1GJgAt4-43" style="rounded=0;orthogonalLoop=1;jettySize=auto;html=1;exitX=1;exitY=0.5;exitDx=0;exitDy=0;entryX=0;entryY=0.5;entryDx=0;entryDy=0;endArrow=none;endFill=0;fontColor=#000000;strokeColor=#000000;fillColor=#e51400;" parent="1" source="BrQD2luiDW-sb1GJgAt4-45" target="BrQD2luiDW-sb1GJgAt4-48" edge="1">
          <mxGeometry relative="1" as="geometry" />
        </mxCell>
        <mxCell id="BrQD2luiDW-sb1GJgAt4-44" style="edgeStyle=none;rounded=0;orthogonalLoop=1;jettySize=auto;html=1;exitX=1;exitY=0.5;exitDx=0;exitDy=0;entryX=0;entryY=0.5;entryDx=0;entryDy=0;endArrow=none;endFill=0;fontColor=#000000;strokeColor=#000000;fillColor=#e51400;" parent="1" source="BrQD2luiDW-sb1GJgAt4-65" target="BrQD2luiDW-sb1GJgAt4-51" edge="1">
          <mxGeometry relative="1" as="geometry" />
        </mxCell>
        <mxCell id="BrQD2luiDW-sb1GJgAt4-45" value="" style="ellipse;whiteSpace=wrap;html=1;aspect=fixed;fillColor=none;" parent="1" vertex="1">
          <mxGeometry x="240" y="1202.5" width="30" height="30" as="geometry" />
        </mxCell>
        <mxCell id="BrQD2luiDW-sb1GJgAt4-46" style="edgeStyle=none;rounded=0;orthogonalLoop=1;jettySize=auto;html=1;exitX=1;exitY=0.5;exitDx=0;exitDy=0;entryX=0;entryY=0.5;entryDx=0;entryDy=0;endArrow=none;endFill=0;" parent="1" source="BrQD2luiDW-sb1GJgAt4-48" target="BrQD2luiDW-sb1GJgAt4-53" edge="1">
          <mxGeometry relative="1" as="geometry" />
        </mxCell>
        <mxCell id="BrQD2luiDW-sb1GJgAt4-47" style="edgeStyle=none;rounded=0;orthogonalLoop=1;jettySize=auto;html=1;exitX=1;exitY=0.5;exitDx=0;exitDy=0;entryX=0;entryY=0.5;entryDx=0;entryDy=0;endArrow=none;endFill=0;strokeColor=#000000;fillColor=#e51400;" parent="1" source="BrQD2luiDW-sb1GJgAt4-48" target="BrQD2luiDW-sb1GJgAt4-55" edge="1">
          <mxGeometry relative="1" as="geometry" />
        </mxCell>
        <mxCell id="BrQD2luiDW-sb1GJgAt4-48" value="" style="ellipse;whiteSpace=wrap;html=1;aspect=fixed;fillColor=none;fontColor=#000000;" parent="1" vertex="1">
          <mxGeometry x="335" y="1202.5" width="30" height="30" as="geometry" />
        </mxCell>
        <mxCell id="BrQD2luiDW-sb1GJgAt4-49" style="edgeStyle=none;rounded=0;orthogonalLoop=1;jettySize=auto;html=1;exitX=1;exitY=0.5;exitDx=0;exitDy=0;endArrow=none;endFill=0;entryX=0;entryY=0.5;entryDx=0;entryDy=0;strokeColor=#000000;fillColor=#e51400;" parent="1" source="BrQD2luiDW-sb1GJgAt4-51" target="BrQD2luiDW-sb1GJgAt4-55" edge="1">
          <mxGeometry relative="1" as="geometry">
            <mxPoint x="535" y="1282.5" as="targetPoint" />
          </mxGeometry>
        </mxCell>
        <mxCell id="BrQD2luiDW-sb1GJgAt4-50" style="edgeStyle=none;rounded=0;orthogonalLoop=1;jettySize=auto;html=1;exitX=1;exitY=0.5;exitDx=0;exitDy=0;entryX=0;entryY=0.5;entryDx=0;entryDy=0;endArrow=none;endFill=0;" parent="1" source="BrQD2luiDW-sb1GJgAt4-51" target="BrQD2luiDW-sb1GJgAt4-57" edge="1">
          <mxGeometry relative="1" as="geometry" />
        </mxCell>
        <mxCell id="BrQD2luiDW-sb1GJgAt4-51" value="" style="ellipse;whiteSpace=wrap;html=1;aspect=fixed;fillColor=none;fontColor=#000000;" parent="1" vertex="1">
          <mxGeometry x="335" y="1282.5" width="30" height="30" as="geometry" />
        </mxCell>
        <mxCell id="BrQD2luiDW-sb1GJgAt4-52" style="edgeStyle=none;rounded=0;orthogonalLoop=1;jettySize=auto;html=1;exitX=1;exitY=0.5;exitDx=0;exitDy=0;entryX=0;entryY=0.5;entryDx=0;entryDy=0;fontSize=18;endArrow=none;endFill=0;" parent="1" source="BrQD2luiDW-sb1GJgAt4-53" target="BrQD2luiDW-sb1GJgAt4-62" edge="1">
          <mxGeometry relative="1" as="geometry" />
        </mxCell>
        <mxCell id="BrQD2luiDW-sb1GJgAt4-53" value="" style="ellipse;whiteSpace=wrap;html=1;aspect=fixed;" parent="1" vertex="1">
          <mxGeometry x="465" y="1162.5" width="30" height="30" as="geometry" />
        </mxCell>
        <mxCell id="BrQD2luiDW-sb1GJgAt4-54" style="edgeStyle=none;rounded=0;orthogonalLoop=1;jettySize=auto;html=1;exitX=1;exitY=0.5;exitDx=0;exitDy=0;entryX=0;entryY=0.5;entryDx=0;entryDy=0;fontSize=18;endArrow=none;endFill=0;" parent="1" source="BrQD2luiDW-sb1GJgAt4-55" target="BrQD2luiDW-sb1GJgAt4-62" edge="1">
          <mxGeometry relative="1" as="geometry" />
        </mxCell>
        <mxCell id="BrQD2luiDW-sb1GJgAt4-55" value="" style="ellipse;whiteSpace=wrap;html=1;aspect=fixed;fillColor=none;" parent="1" vertex="1">
          <mxGeometry x="465" y="1242.5" width="30" height="30" as="geometry" />
        </mxCell>
        <mxCell id="BrQD2luiDW-sb1GJgAt4-56" style="edgeStyle=none;rounded=0;orthogonalLoop=1;jettySize=auto;html=1;exitX=1;exitY=0.5;exitDx=0;exitDy=0;entryX=0;entryY=0.5;entryDx=0;entryDy=0;fontSize=18;endArrow=none;endFill=0;" parent="1" source="BrQD2luiDW-sb1GJgAt4-57" target="BrQD2luiDW-sb1GJgAt4-62" edge="1">
          <mxGeometry relative="1" as="geometry">
            <mxPoint x="585" y="1297.5" as="targetPoint" />
          </mxGeometry>
        </mxCell>
        <mxCell id="BrQD2luiDW-sb1GJgAt4-57" value="" style="ellipse;whiteSpace=wrap;html=1;aspect=fixed;" parent="1" vertex="1">
          <mxGeometry x="465" y="1322.5" width="30" height="30" as="geometry" />
        </mxCell>
        <mxCell id="BrQD2luiDW-sb1GJgAt4-58" style="edgeStyle=none;rounded=0;orthogonalLoop=1;jettySize=auto;html=1;exitX=1;exitY=0.5;exitDx=0;exitDy=0;entryX=0;entryY=0.5;entryDx=0;entryDy=0;fontSize=18;endArrow=none;endFill=0;" parent="1" source="BrQD2luiDW-sb1GJgAt4-60" target="BrQD2luiDW-sb1GJgAt4-45" edge="1">
          <mxGeometry relative="1" as="geometry" />
        </mxCell>
        <mxCell id="BrQD2luiDW-sb1GJgAt4-59" style="rounded=0;orthogonalLoop=1;jettySize=auto;html=1;exitX=1;exitY=0.5;exitDx=0;exitDy=0;entryX=0;entryY=0.5;entryDx=0;entryDy=0;fontFamily=Georgia;fontSize=27;endArrow=none;endFill=0;" parent="1" source="BrQD2luiDW-sb1GJgAt4-78" target="BrQD2luiDW-sb1GJgAt4-65" edge="1">
          <mxGeometry relative="1" as="geometry" />
        </mxCell>
        <mxCell id="BrQD2luiDW-sb1GJgAt4-60" value="" style="ellipse;whiteSpace=wrap;html=1;aspect=fixed;" parent="1" vertex="1">
          <mxGeometry x="120" y="1202.5" width="30" height="30" as="geometry" />
        </mxCell>
        <mxCell id="BrQD2luiDW-sb1GJgAt4-61" style="edgeStyle=none;rounded=0;orthogonalLoop=1;jettySize=auto;html=1;exitX=1;exitY=0.5;exitDx=0;exitDy=0;entryX=0;entryY=0.5;entryDx=0;entryDy=0;fontSize=18;endArrow=none;endFill=0;" parent="1" source="BrQD2luiDW-sb1GJgAt4-62" target="BrQD2luiDW-sb1GJgAt4-63" edge="1">
          <mxGeometry relative="1" as="geometry" />
        </mxCell>
        <mxCell id="BrQD2luiDW-sb1GJgAt4-62" value="" style="ellipse;whiteSpace=wrap;html=1;aspect=fixed;" parent="1" vertex="1">
          <mxGeometry x="595" y="1242.5" width="30" height="30" as="geometry" />
        </mxCell>
        <mxCell id="BrQD2luiDW-sb1GJgAt4-63" value="" style="ellipse;whiteSpace=wrap;html=1;aspect=fixed;" parent="1" vertex="1">
          <mxGeometry x="695" y="1242.5" width="30" height="30" as="geometry" />
        </mxCell>
        <mxCell id="BrQD2luiDW-sb1GJgAt4-64" value="&lt;font style=&quot;font-size: 27px&quot; face=&quot;Georgia&quot;&gt;&amp;lt;s&amp;gt;&lt;/font&gt;" style="text;html=1;align=center;verticalAlign=middle;resizable=0;points=[];autosize=1;strokeColor=none;fillColor=none;" parent="1" vertex="1">
          <mxGeometry x="-40" y="1247.5" width="60" height="20" as="geometry" />
        </mxCell>
        <mxCell id="BrQD2luiDW-sb1GJgAt4-65" value="" style="ellipse;whiteSpace=wrap;html=1;aspect=fixed;fillColor=none;" parent="1" vertex="1">
          <mxGeometry x="240" y="1282.5" width="30" height="30" as="geometry" />
        </mxCell>
        <mxCell id="BrQD2luiDW-sb1GJgAt4-66" value="&lt;font style=&quot;font-size: 27px&quot; face=&quot;Georgia&quot;&gt;where&lt;/font&gt;" style="text;html=1;align=center;verticalAlign=middle;resizable=0;points=[];autosize=1;strokeColor=none;fillColor=none;" parent="1" vertex="1">
          <mxGeometry x="150" y="1192.5" width="90" height="20" as="geometry" />
        </mxCell>
        <mxCell id="BrQD2luiDW-sb1GJgAt4-67" value="&lt;font style=&quot;font-size: 27px&quot; face=&quot;Georgia&quot;&gt;where&lt;/font&gt;" style="text;html=1;align=center;verticalAlign=middle;resizable=0;points=[];autosize=1;strokeColor=none;fillColor=none;" parent="1" vertex="1">
          <mxGeometry x="150" y="1302.5" width="90" height="20" as="geometry" />
        </mxCell>
        <mxCell id="BrQD2luiDW-sb1GJgAt4-68" value="&lt;font style=&quot;font-size: 27px&quot; face=&quot;Georgia&quot;&gt;is&lt;/font&gt;" style="text;html=1;align=center;verticalAlign=middle;resizable=0;points=[];autosize=1;strokeColor=none;fillColor=none;fontColor=#000000;" parent="1" vertex="1">
          <mxGeometry x="284" y="1192.5" width="40" height="20" as="geometry" />
        </mxCell>
        <mxCell id="BrQD2luiDW-sb1GJgAt4-69" value="&lt;font style=&quot;font-size: 27px&quot; face=&quot;Georgia&quot;&gt;is&lt;/font&gt;" style="text;html=1;align=center;verticalAlign=middle;resizable=0;points=[];autosize=1;strokeColor=none;fillColor=none;fontColor=#000000;" parent="1" vertex="1">
          <mxGeometry x="284" y="1302.5" width="40" height="20" as="geometry" />
        </mxCell>
        <mxCell id="BrQD2luiDW-sb1GJgAt4-70" value="&lt;font style=&quot;font-size: 27px&quot; face=&quot;Georgia&quot;&gt;the&lt;/font&gt;" style="text;html=1;align=center;verticalAlign=middle;resizable=0;points=[];autosize=1;strokeColor=none;fillColor=none;fontColor=#000000;" parent="1" vertex="1">
          <mxGeometry x="395" y="1282.5" width="50" height="20" as="geometry" />
        </mxCell>
        <mxCell id="BrQD2luiDW-sb1GJgAt4-71" value="&lt;font style=&quot;font-size: 27px&quot; face=&quot;Georgia&quot;&gt;the&lt;/font&gt;" style="text;html=1;align=center;verticalAlign=middle;resizable=0;points=[];autosize=1;strokeColor=none;fillColor=none;fontColor=#000000;" parent="1" vertex="1">
          <mxGeometry x="395" y="1212.5" width="50" height="20" as="geometry" />
        </mxCell>
        <mxCell id="BrQD2luiDW-sb1GJgAt4-72" value="&lt;font style=&quot;font-size: 27px&quot; face=&quot;Georgia&quot;&gt;these&lt;/font&gt;" style="text;html=1;align=center;verticalAlign=middle;resizable=0;points=[];autosize=1;strokeColor=none;fillColor=none;" parent="1" vertex="1">
          <mxGeometry x="374" y="1162.5" width="80" height="20" as="geometry" />
        </mxCell>
        <mxCell id="BrQD2luiDW-sb1GJgAt4-73" value="&lt;font style=&quot;font-size: 27px&quot; face=&quot;Georgia&quot;&gt;there&lt;/font&gt;" style="text;html=1;align=center;verticalAlign=middle;resizable=0;points=[];autosize=1;strokeColor=none;fillColor=none;fontColor=#000000;" parent="1" vertex="1">
          <mxGeometry x="374" y="1327.5" width="80" height="20" as="geometry" />
        </mxCell>
        <mxCell id="BrQD2luiDW-sb1GJgAt4-74" value="&lt;font style=&quot;font-size: 27px&quot; face=&quot;Georgia&quot;&gt;book&lt;/font&gt;" style="text;html=1;align=center;verticalAlign=middle;resizable=0;points=[];autosize=1;strokeColor=none;fillColor=none;" parent="1" vertex="1">
          <mxGeometry x="530" y="1182.5" width="70" height="20" as="geometry" />
        </mxCell>
        <mxCell id="BrQD2luiDW-sb1GJgAt4-75" value="&lt;font style=&quot;font-size: 27px&quot; face=&quot;Georgia&quot;&gt;book&lt;/font&gt;" style="text;html=1;align=center;verticalAlign=middle;resizable=0;points=[];autosize=1;strokeColor=none;fillColor=none;" parent="1" vertex="1">
          <mxGeometry x="495" y="1232.5" width="70" height="20" as="geometry" />
        </mxCell>
        <mxCell id="BrQD2luiDW-sb1GJgAt4-76" value="&lt;font style=&quot;font-size: 27px&quot; face=&quot;Georgia&quot;&gt;&amp;lt;/s&amp;gt;&lt;/font&gt;" style="text;html=1;align=center;verticalAlign=middle;resizable=0;points=[];autosize=1;strokeColor=none;fillColor=none;" parent="1" vertex="1">
          <mxGeometry x="625" y="1227.5" width="70" height="20" as="geometry" />
        </mxCell>
        <mxCell id="BrQD2luiDW-sb1GJgAt4-77" value="&lt;font style=&quot;font-size: 27px&quot; face=&quot;Georgia&quot;&gt;book&lt;br&gt;&lt;/font&gt;" style="text;html=1;align=center;verticalAlign=middle;resizable=0;points=[];autosize=1;strokeColor=none;fillColor=none;" parent="1" vertex="1">
          <mxGeometry x="530" y="1312.5" width="70" height="20" as="geometry" />
        </mxCell>
        <mxCell id="BrQD2luiDW-sb1GJgAt4-78" value="" style="ellipse;whiteSpace=wrap;html=1;aspect=fixed;" parent="1" vertex="1">
          <mxGeometry x="120" y="1282.5" width="30" height="30" as="geometry" />
        </mxCell>
        <mxCell id="BrQD2luiDW-sb1GJgAt4-79" style="rounded=0;orthogonalLoop=1;jettySize=auto;html=1;exitX=1;exitY=0.5;exitDx=0;exitDy=0;entryX=0;entryY=0.5;entryDx=0;entryDy=0;endArrow=none;endFill=0;" parent="1" source="BrQD2luiDW-sb1GJgAt4-81" target="BrQD2luiDW-sb1GJgAt4-60" edge="1">
          <mxGeometry relative="1" as="geometry" />
        </mxCell>
        <mxCell id="BrQD2luiDW-sb1GJgAt4-80" style="rounded=0;orthogonalLoop=1;jettySize=auto;html=1;exitX=1;exitY=0.5;exitDx=0;exitDy=0;entryX=0;entryY=0.5;entryDx=0;entryDy=0;endArrow=none;endFill=0;" parent="1" source="BrQD2luiDW-sb1GJgAt4-81" target="BrQD2luiDW-sb1GJgAt4-78" edge="1">
          <mxGeometry relative="1" as="geometry" />
        </mxCell>
        <mxCell id="BrQD2luiDW-sb1GJgAt4-81" value="" style="ellipse;whiteSpace=wrap;html=1;aspect=fixed;" parent="1" vertex="1">
          <mxGeometry x="20" y="1242.5" width="30" height="30" as="geometry" />
        </mxCell>
        <mxCell id="BrQD2luiDW-sb1GJgAt4-82" value="&lt;font style=&quot;font-size: 27px&quot; face=&quot;Georgia&quot;&gt;and&lt;/font&gt;" style="text;html=1;align=center;verticalAlign=middle;resizable=0;points=[];autosize=1;strokeColor=none;fillColor=none;" parent="1" vertex="1">
          <mxGeometry x="50" y="1207.5" width="60" height="20" as="geometry" />
        </mxCell>
        <mxCell id="BrQD2luiDW-sb1GJgAt4-83" value="&lt;font style=&quot;font-size: 27px&quot; face=&quot;Georgia&quot;&gt;add&lt;/font&gt;" style="text;html=1;align=center;verticalAlign=middle;resizable=0;points=[];autosize=1;strokeColor=none;fillColor=none;" parent="1" vertex="1">
          <mxGeometry x="50" y="1287.5" width="60" height="20" as="geometry" />
        </mxCell>
      </root>
    </mxGraphModel>
  </diagram>
</mxfile>
